#!Matlab matrix to amc conversion
:FULLY-SPECIFIED
:DEGREES
1
root 9.287220 16.950000 -34.276200 0.000000 0.000000 0.000000
lowerback 0.000000 0.000000 0.000000
upperback 0.000000 0.000000 0.000000
thorax 0.000000 0.000000 0.000000
lowerneck -16.000000 0.000000 0.000000
upperneck 21.000000 0.000000 0.000000
head 11.000000 0.000000 0.000000
rclavicle 0.000000 0.000000
rhumerus 0.000000 0.000000 0.000000
rradius 0.000000
rwrist 0.000000
rhand 0.000000 0.000000
rfingers 0.000000
rthumb 0.000000 0.000000
lclavicle 0.000000 0.000000
lhumerus 0.000000 0.000000 0.000000
lradius 0.000000
lwrist 0.000000
lhand 0.000000 0.000000
lfingers 0.000000
lthumb 0.000000 0.000000
rfemur 0.000000 0.000000 21.000000
rtibia 0.000000
rfoot 0.000000 0.000000
rtoes 0.000000
lfemur 0.000000 0.000000 -21.000000
ltibia 0.000000
lfoot 0.000000 0.000000
ltoes 0.000000
2
root 9.287220 16.950000 -34.276200 1.522909 1.634016 -1.312745
lowerback 12.807471 -0.805826 -5.422931
upperback 0.008153 -1.894456 0.943347
thorax -6.750279 -0.687946 4.750860
lowerneck -10.771672 0.110234 -1.393584
upperneck 28.732270 0.914766 -1.691778
head 11.243673 0.081065 -0.268518
rclavicle -0.000000 0.000000
rhumerus -38.553011 -11.273473 -77.926082
rradius 27.803865
rwrist 0.805400
rhand -12.619965 11.421380
rfingers 7.125020
rthumb 13.433881 -18.028761
lclavicle -0.000000 0.000000
lhumerus -33.662704 -0.228885 83.746143
lradius 43.616504
lwrist 7.843265
lhand -14.346198 44.937283
lfingers 7.125020
lthumb 11.764024 74.569118
rfemur -25.133897 4.190346 15.600805
rtibia 25.711992
rfoot -11.989648 -17.404110
rtoes 1.737483
lfemur 7.977128 -5.480582 -29.933136
ltibia 18.370044
lfoot -15.580526 3.141228
ltoes -4.968033
3
root 9.273270 17.016600 -33.905900 1.702182 1.634016 -0.081986
lowerback 12.582104 -0.999319 -6.005829
upperback -0.220623 -2.240823 0.867692
thorax -6.858609 -0.826805 5.017236
lowerneck -10.846946 0.126437 -1.482290
upperneck 28.688895 0.937094 -1.622168
head 11.258404 0.087198 -0.230370
rclavicle -0.000000 0.000000
rhumerus -39.343162 -11.869663 -77.359196
rradius 27.452231
rwrist 1.772233
rhand -12.093996 11.260891
rfingers 7.125020
rthumb 13.947485 -18.166023
lclavicle -0.000000 0.000000
lhumerus -33.681330 -0.798213 83.628709
lradius 44.807086
lwrist 7.810908
lhand -14.231173 44.575949
lfingers 7.125020
lthumb 11.894780 74.217919
rfemur -26.223734 5.468716 13.933047
rtibia 22.712519
rfoot -14.288894 -18.399590
rtoes 0.645071
lfemur 10.953384 -5.403507 -30.417879
ltibia 15.599307
lfoot -15.263707 2.900524
ltoes -7.418601
4
root 9.268420 17.025800 -33.555600 1.541616 1.634016 -0.810358
lowerback 12.617324 -1.123157 -5.674852
upperback -0.372748 -2.316488 1.105842
thorax -7.064821 -0.864223 5.055693
lowerneck -11.103053 0.154232 -1.447948
upperneck 28.866387 1.030558 -1.785183
head 11.386429 0.108972 -0.285417
rclavicle -0.000000 0.000000
rhumerus -39.629922 -13.024775 -76.483709
rradius 26.210001
rwrist 3.172889
rhand -12.127300 11.045988
rfingers 7.125020
rthumb 13.921992 -18.404367
lclavicle -0.000000 0.000000
lhumerus -33.908843 -0.174995 83.427999
lradius 44.691181
lwrist 7.540163
lhand -14.618341 45.034057
lfingers 7.125020
lthumb 11.523204 74.694388
rfemur -25.909886 6.166157 14.727125
rtibia 21.097763
rfoot -12.337687 -18.811651
rtoes 3.136054
lfemur 13.134926 -5.833680 -29.734403
ltibia 15.016149
lfoot -14.379785 2.611800
ltoes -10.643716
5
root 9.249270 17.016300 -33.220600 1.438143 1.634016 -0.965206
lowerback 12.649729 -1.240852 -5.324051
upperback -0.522078 -2.382357 1.335277
thorax -7.262712 -0.897583 5.079384
lowerneck -11.361903 0.183017 -1.412102
upperneck 29.045851 1.125781 -1.949847
head 11.515345 0.131404 -0.340394
rclavicle -0.000000 0.000000
rhumerus -39.893465 -14.111493 -75.628884
rradius 25.003859
rwrist 4.482820
rhand -12.158341 10.865317
rfingers 7.125020
rthumb 13.898542 -18.590964
lclavicle -0.000000 0.000000
lhumerus -34.158548 0.457817 83.227243
lradius 44.578694
lwrist 7.272273
lhand -14.981187 45.470333
lfingers 7.125020
lthumb 11.174938 75.148543
rfemur -25.585217 6.764679 15.565055
rtibia 20.539942
rfoot -10.545615 -19.048498
rtoes 5.330416
lfemur 15.169536 -6.265705 -29.044312
ltibia 14.681782
lfoot -13.555696 2.327922
ltoes -13.577015
6
root 9.246830 17.017700 -32.897400 1.359399 1.634016 -0.706192
lowerback 12.679783 -1.357424 -4.893136
upperback -0.673031 -2.440931 1.581191
thorax -7.458975 -0.928100 5.089958
lowerneck -11.639570 0.213156 -1.373068
upperneck 29.229039 1.224009 -2.122126
head 11.646597 0.154766 -0.399372
rclavicle -0.000000 0.000000
rhumerus -40.161971 -15.252196 -74.717572
rradius 23.779631
rwrist 5.795639
rhand -12.187682 10.673944
rfingers 7.125020
rthumb 13.876713 -18.783750
lclavicle -0.000000 0.000000
lhumerus -34.458482 1.111316 83.022405
lradius 44.465125
lwrist 7.002097
lhand -15.329728 45.901000
lfingers 7.125020
lthumb 10.840369 75.597502
rfemur -25.236753 7.410399 16.674632
rtibia 20.486694
rfoot -8.502288 -19.150558
rtoes 7.610636
lfemur 17.176712 -6.730468 -28.278270
ltibia 14.528782
lfoot -12.680579 2.045725
ltoes -16.730502
7
root 9.219480 17.016100 -32.563300 1.849887 1.634016 -0.180418
lowerback 12.677011 -1.194379 -3.828453
upperback -0.732172 -2.081770 1.907753
thorax -7.589231 -0.780908 4.789514
lowerneck -11.611884 0.323188 -1.338247
upperneck 29.442956 1.424308 -2.287315
head 11.726375 0.229371 -0.449403
rclavicle -0.000000 0.000000
rhumerus -40.278215 -15.906117 -73.828206
rradius 23.363004
rwrist 6.251644
rhand -12.137623 10.436930
rfingers 7.125020
rthumb 13.925250 -19.022727
lclavicle -0.000000 0.000000
lhumerus -36.263039 2.569770 83.040295
lradius 43.369748
lwrist 6.889550
lhand -14.251578 46.294497
lfingers 7.125020
lthumb 11.881588 75.907550
rfemur -23.913170 6.084377 18.996984
rtibia 23.387565
rfoot -6.595303 -15.834900
rtoes 11.072336
lfemur 14.891361 -6.640384 -26.995872
ltibia 21.949265
lfoot -6.293309 1.097682
ltoes -18.300305
8
root 9.210440 16.998300 -32.235300 2.179759 1.634016 0.002920
lowerback 12.680477 -1.038651 -2.885532
upperback -0.781511 -1.737562 2.205205
thorax -7.714665 -0.640439 4.500081
lowerneck -11.573165 0.430764 -1.305996
upperneck 29.651211 1.616315 -2.411160
head 11.802457 0.302054 -0.481850
rclavicle -0.000000 0.000000
rhumerus -40.350699 -16.444480 -73.025941
rradius 23.000526
rwrist 6.628375
rhand -12.093903 10.264120
rfingers 7.125020
rthumb 13.967742 -19.196665
lclavicle -0.000000 0.000000
lhumerus -37.884356 3.947741 83.069214
lradius 42.365151
lwrist 6.795521
lhand -13.211873 46.696707
lfingers 7.125020
lthumb 12.885748 76.228385
rfemur -22.639765 4.907368 21.103619
rtibia 25.479842
rfoot -5.385214 -13.053955
rtoes 13.700527
lfemur 12.623392 -6.475007 -25.800937
ltibia 28.787978
lfoot -0.395186 0.159346
ltoes -18.668626
9
root 9.216220 16.950400 -31.922700 2.459014 1.634016 0.096058
lowerback 12.690233 -0.881209 -1.928168
upperback -0.823254 -1.390511 2.496317
thorax -7.840683 -0.499155 4.204586
lowerneck -11.517998 0.538122 -1.273568
upperneck 29.856022 1.806133 -2.515801
head 11.875816 0.374462 -0.506478
rclavicle -0.000000 0.000000
rhumerus -40.385412 -16.902135 -72.274785
rradius 22.677366
rwrist 6.941750
rhand -12.055367 10.106156
rfingers 7.125020
rthumb 14.005313 -19.355253
lclavicle -0.000000 0.000000
lhumerus -39.496693 5.289400 83.110330
lradius 41.389048
lwrist 6.716575
lhand -12.178177 47.116484
lfingers 7.125020
lthumb 13.884128 76.567011
rfemur -21.324078 3.734051 23.216981
rtibia 27.405773
rfoot -4.629639 -10.262267
rtoes 16.098738
lfemur 10.165107 -6.210516 -24.556162
ltibia 35.749379
lfoot 5.570916 -0.789865
ltoes -17.972965
10
root 9.215440 16.883800 -31.609400 2.070084 1.634016 0.136124
lowerback 13.244705 -0.814297 -0.833065
upperback -0.588395 -1.093496 2.696385
thorax -7.943146 -0.399588 3.766780
lowerneck -11.450084 0.473320 -1.301892
upperneck 29.610039 1.707664 -2.468033
head 11.756303 0.333071 -0.494393
rclavicle -0.000000 0.000000
rhumerus -38.880037 -14.779532 -73.550582
rradius 24.487826
rwrist 5.263639
rhand -12.264027 10.186060
rfingers 7.125020
rthumb 13.804811 -19.286451
lclavicle -0.000000 0.000000
lhumerus -40.119749 4.858201 83.682156
lradius 40.761555
lwrist 6.008524
lhand -11.932968 46.674301
lfingers 7.125020
lthumb 14.118330 76.106663
rfemur -18.896349 3.874264 25.074068
rtibia 28.217113
rfoot -6.186463 -10.033069
rtoes 15.835486
lfemur 4.546064 -4.812610 -22.251602
ltibia 43.861714
lfoot 5.865306 -1.681843
ltoes -17.003088
